<?xml version="1.0" ?><!DOCTYPE svg  PUBLIC '-//W3C//DTD SVG 1.1//EN'  'http://www.w3.org/Graphics/SVG/1.1/DTD/svg11.dtd'><svg height="512px" style="enable-background:new 0 0 512 512;" version="1.1" viewBox="0 0 512 512" width="512px" xml:space="preserve" xmlns="http://www.w3.org/2000/svg" xmlns:xlink="http://www.w3.org/1999/xlink"><g id="social__x2C__media__x2C__social_media__x2C__github__x2C_"><polygon points="490.569,368.662 483.281,370.234 488.761,371.95 468.088,372.767 464.339,373.936    491.778,377.095 488.386,378.523 480.819,379.457 495.044,382.553 476.936,382.092 475.831,383.452 489.886,387.067    460.049,383.868 484.075,389.443 491.27,392.464 460.722,387.889 478.31,393.109 486.791,396.696 490.429,399.323 485.084,399.686    468.129,396.649 484.137,402.853 461.509,397.569 488.954,407.887 490.788,410.351 456.853,400.141 492.125,414.622    458.036,403.366 489.328,417.381 474.306,413.023 488.691,420.99 456.396,408.383 480.212,420.994 463.041,414.537    476.407,422.851 468.76,420.744 451.301,413.117 482.109,431.699 480.518,432.844 472.21,429.971 462.319,425.864 466.308,430.147    474.596,437.405 474.137,439.172 468.182,437.188 475.428,444.359 450.866,428.658 447.79,428.104 473.117,449.349    458.642,440.176 441.353,428.108 445.275,433.077 440.584,430.849 450.058,440.979 465.12,456.715 451.502,446.412    459.582,456.329 451.947,451.222 435.438,436.758 452.5,456.44 447.068,453.055 433.932,440.939 445.088,455.575 439.756,451.804    452.83,469.763 443.356,460.973 449.163,470.943 448.598,473.109 426.14,446.104 435.39,461.068 431.69,458.536 426.514,453.648    436.909,471.786 423.877,454.75 427.371,462.952 416.885,448.626 428.176,470.306 421.246,461.429 424.474,470.264    422.346,469.653 421.314,471.061 424.884,481.691 418.448,472.373 422.109,483.91 415.127,472.664 410.199,465.227    411.251,471.473 407.977,467.413 411.431,480.37 402.523,461.059 401.436,461.979 410.143,491.844 402.985,475.546 397.13,461.83    395.214,460.009 402.029,489.229 394.302,466.718 396.229,480.132 395.929,485.72 394.763,488.063 387.634,461.821    389.395,477.845 389.842,489 389.36,496.342 384.705,477.303 385.096,491.315 380.884,470.837 380.959,484.508 380.312,494.538    376.441,468.245 376.496,489.342 373.849,470.765 373.128,487.768 371.378,483.16 369.726,476.961 368.246,482.063    366.719,472.865 365.191,483.392 363.664,465.509 362.137,497.927 360.609,461.524 359.082,480.158 357.555,479.31 356.027,470.15    354.499,465.87 352.971,489.181 351.442,489.356 349.914,489.563 348.385,481.693 346.854,461.584 345.325,486.718    343.797,471.221 342.268,475.834 340.739,466.063 339.211,470.518 337.683,468.917 336.155,463.866 334.627,483.563 333.1,486.891    331.571,470.366 330.044,464.415 328.516,475.806 326.987,475.219 325.459,464.367 323.931,496.377 322.402,488.895    320.874,497.894 319.345,471.157 317.815,485.254 316.287,493.229 314.759,469.82 313.231,487.223 311.705,484.922    310.179,481.016 308.653,483.957 307.128,475.805 305.604,480.994 304.079,482.606 302.555,489.109 301.03,474.378    299.506,462.104 297.982,462.896 296.458,496.246 294.934,470.311 293.409,465.321 291.884,479.079 290.359,469.574    288.833,475.984 287.308,481.952 285.78,500.951 284.253,478.643 282.725,494.63 281.196,489.994 279.666,475.059 278.135,467.691    276.605,488.092 275.076,499.461 273.547,473.935 272.02,498.537 270.492,477.821 268.965,476.871 267.438,471.632    265.911,463.204 264.385,490.306 262.858,475.112 261.332,466.867 259.805,482.596 258.277,478.208 256.75,474.947    255.221,494.973 253.692,467.401 252.162,488.456 250.63,464.418 249.099,489.929 247.569,497.55 246.04,488.534 244.511,462.382    242.982,497.737 241.454,496.401 239.926,482.238 238.398,492.443 236.869,482.358 235.34,495.975 233.811,486.115 232.28,493.528    230.748,465.482 229.216,489.433 227.686,477.876 226.156,493.341 224.626,481.379 223.097,487.076 221.567,487.999    220.038,470.97 218.507,488.067 216.976,492.117 215.444,465.783 213.912,474.879 212.381,476.084 210.851,492.462    209.321,491.122 207.791,462.548 206.259,476.055 204.727,464.75 203.195,483.211 201.663,467.98 200.132,466.359 198.602,486.93    197.07,497.467 195.537,483.393 194.005,482.126 192.479,475.576 190.95,481.903 189.419,461.246 187.886,486.785 186.355,484.247    184.826,464.209 183.297,462.959 181.769,467.479 180.239,479.081 178.707,480.766 177.173,480.486 175.642,475.531    174.111,487.934 172.58,498.89 171.046,477.051 169.513,473.243 167.98,479.265 166.447,483.509 164.912,493.258 163.379,468.281    161.844,467.041 160.31,499.557 158.774,484.856 157.243,476.878 155.711,477.922 154.175,481.308 152.641,498.391    151.105,477.125 149.568,476.934 148.032,479.927 146.493,490.982 144.952,493.582 143.41,487.932 141.615,500.451    140.353,480.479 138.266,494.368 137.051,484.9 134.484,499.247 133.278,492.067 132.519,482.187 130.016,490.81 127.925,494.111    129.633,468.688 129.396,460.911 128.179,460.551 123.91,477.225 120.177,488.662 116.854,496.423 122.782,461.359    116.714,481.499 119.791,462.638 113.703,480.484 109.019,491.379 106.298,494.445 107.704,483.82 105.977,483.826    101.117,492.979 100.511,489.305 109.005,461.35 100.211,480.385 95.717,487.166 104.28,462.176 101.397,465.332 91.58,483.589    91.772,479.114 97.202,464.084 89.613,475.983 88.961,473.676 92.545,463.573 92.368,460.865 96.816,450.18 79.683,476.684    76.196,479.121 89.397,454.769 85.272,458.588 77.542,467.555 88.586,448.592 74.633,466.044 69.439,470.407 65.359,472.998    75.291,457.185 73.445,457.059 64.757,465.297 67.858,458.94 67.157,457.282 56.86,466.522 62.361,457.813 61.844,455.96    66.228,449.035 55.031,458.217 54.58,456.251 71.958,437.189 69.103,438.007 66.16,438.822 54.221,447.486 67.052,434.282    60.449,438.021 47.359,446.777 63.592,431.758 49.673,440.732 44.526,442.571 52.679,434.551 52.574,432.75 63.342,423.511    62.598,422.406 60.56,422.152 49.033,427.807 48.151,426.563 36.745,431.54 49.649,422.195 31.962,430.328 56.542,415.145    43.675,420.318 46.065,417.402 39.394,418.987 44.532,414.838 43.937,413.473 44.121,411.769 36.514,413.354 52.271,405.295    35.921,410.192 47.307,404.29 19.2,412.799 53.554,399.209 18.473,409.245 50.861,397.337 23.841,403.926 52.979,393.997    39.458,396.259 42.098,394.086 18.921,398.085 36.311,392.446 51.254,387.83 49.619,386.837 36.513,387.849 50.314,384.086    34.867,385.099 15.265,386.259 42.873,381.102 23.584,381.8 40.69,378.525 25.129,378.372 22.294,376.941 12.813,375.794    19.077,373.751 44.349,371.374 39.736,370.083 48.982,368.662 21.029,367.136 49.579,365.61 50.777,364.084 30.165,362.559    19.059,361.032 17.811,359.506 12.872,357.979 26.119,356.453 49.083,354.927 36.743,353.399 33.607,351.872 11.414,350.345    37.506,348.816 25.067,347.289 27.778,345.761 25.553,344.232 17.16,342.705 12.234,341.178 18.068,339.651 19.447,338.124    16.063,336.598 26.302,335.071 32.832,333.545 26.821,332.018 42.664,330.491 18.576,328.965 14.742,327.438 39.287,325.91    11.333,324.383 33.801,322.856 14.05,321.329 23.835,319.801 31.833,318.273 14.65,316.746 40.2,315.22 21.503,313.693    26.505,312.168 49.258,310.644 45.555,309.119 45.968,307.595 18.971,306.071 50.55,304.548 14.976,303.025 40.8,301.502    18.051,299.979 36.12,298.456 35.03,296.934 14.151,295.41 40.663,293.887 37.411,292.363 36.531,290.84 49.608,289.314    37.468,287.79 46.93,286.265 44.207,284.738 31.966,283.212 24.991,281.684 32.269,280.155 27.224,278.625 26.683,277.097    27.981,275.568 25.672,274.041 24.316,272.515 31.743,270.988 15.755,269.463 37.896,267.938 37.279,266.412 40.7,264.887    36.271,263.361 45.118,261.836 46.568,260.311 15.645,258.784 11.692,257.258 37.642,255.73 42.756,254.202 28.84,252.673    39.186,251.143 19.157,249.613 27.613,248.084 11.774,246.556 20.695,245.028 25.284,243.501 38.521,241.975 50.395,240.448    25.466,238.92 50.167,237.393 30.021,235.865 25.255,234.337 49.032,232.808 29.868,231.277 26.208,229.747 15.346,228.217    12.459,226.688 11.321,225.16 17.739,223.632 24.333,222.104 25.559,220.576 15.551,219.046 17.195,217.517 47.977,215.985    37.841,214.455 43.97,212.925 26.564,211.396 41.469,209.867 20.947,208.338 16.448,206.808 50.57,205.277 45.448,203.746    46.331,202.216 49.955,200.687 29.618,199.157 29.427,197.626 41.899,196.095 26.472,194.564 26.098,193.039 31.405,191.512    31.415,189.982 18.969,188.45 17.803,186.92 32.38,185.393 40.364,183.866 44.178,182.338 32.195,180.81 24.563,179.279    32.063,177.746 30.896,176.216 15.285,174.687 31.988,173.157 17.757,171.624 32.611,170.092 48.887,168.561 22.308,167.029    24.445,165.495 13.151,163.963 29.952,162.43 28.506,160.896 24.187,159.362 34.148,157.832 25.791,156.302 19.283,154.767    28.655,153.234 13.03,151.7 18.886,150.163 36.868,148.629 12.659,147.091 40.338,145.551 15.075,144.011 21,142.342    30.463,140.925 25.148,139.168 29.002,137.756 38.028,136.796 28.691,134.591 17.317,131.94 40.042,132.665 13.347,127.962    38.809,129.625 14.741,124.549 33.156,125.774 45.391,126.403 14.977,119.169 44.9,123.528 18.07,116.178 44.138,120.53    36.365,117.146 51.896,119.708 19.626,109.325 44.754,114.906 28.001,108.244 51.379,114.106 54.516,113.785 24.995,101.917    26.816,100.762 48.477,107.326 53.952,108.037 50.382,105.117 34.894,96.873 26.33,91.22 45.184,98.122 37.938,92.958    52.136,98.302 41.7,91.308 50.599,94.318 39.503,86.511 41.417,85.74 52.499,90.428 34.485,77.748 52.028,86.73 43.607,79.515    37.496,73.483 54.301,82.933 65.266,88.884 38.852,68.027 51.504,75.305 39.341,63.94 63.714,80.987 51.141,68.945 45.394,62.002    44.761,59.155 51.158,62.451 67.756,75.288 66.885,72.56 52.014,56.284 74.815,76.367 52.745,52.095 70.333,67.895 72.386,67.982    56.318,48.175 71.731,62.942 80.773,71.186 82.994,71.792 73.767,58.421 83.481,68.269 80.152,61.786 66.241,40.803 67.92,40.127    78.086,51.483 77.393,47.736 76.913,44.143 92.546,65.302 83.617,48.661 82.355,43.63 85.106,45.136 87.361,45.92 98.25,62.411    95.235,54.08 91.339,43.539 87.529,32.483 99.693,53.707 94.248,38.815 105.337,59.563 97.77,38.959 106.82,56.554 98.713,32.913    104.646,43.741 97.742,20.867 100.306,22.721 107.668,38.954 109.889,40.894 111.824,42.137 109.189,28.012 110.908,28.019    115.521,39.036 119.667,49.516 118.025,36.724 119.964,38.521 122.452,43.265 121.736,32.095 121.864,23.937 128.272,52.719    124.559,19.444 127.827,30.693 128.155,20.488 131.863,38.925 134.215,48.414 133.087,18.217 134.46,13.007 137.804,41.754    138.899,34.128 140.202,26.655 141.688,17.809 143.41,46.778 144.938,27.411 146.465,47.098 147.992,37.942 149.519,44.349    151.046,30.131 152.574,37.088 154.102,25.073 155.629,25.489 157.157,27.366 158.686,36.535 160.214,30.989 161.743,16.821    163.272,23.104 164.801,48.99 166.331,31.106 167.86,43.255 169.388,32.951 170.917,48 172.445,44.719 173.973,47.64    175.501,47.759 177.029,47.187 178.557,35.47 180.084,15.949 181.612,41.902 183.14,32.743 184.668,15.837 186.197,16.778    187.726,39.884 189.253,17.091 190.782,39.318 192.312,43.864 193.841,35.06 195.369,12.482 196.897,24.121 198.424,50.425    199.951,14.23 201.477,23.25 203.002,12.094 204.528,24.037 206.053,41.832 207.577,15.494 209.102,46.623 210.626,50.81    212.15,17.481 213.674,42.938 215.198,33.266 216.723,17.606 218.247,20.659 219.772,47.705 221.297,46.89 222.823,21.062    224.349,16.213 225.875,34.758 227.403,49.024 228.931,12.15 230.46,34.499 231.99,18.783 233.521,39.196 235.051,25.046    236.58,39.869 238.109,42.225 239.637,44.018 241.164,39.034 242.691,41.276 244.218,23.243 245.745,47.744 247.271,22.208    248.797,18.727 250.324,12.363 251.851,28.065 253.378,45.743 254.906,19.361 256.435,16.524 257.965,40.895 259.495,17.418    261.026,36.872 262.558,49.311 264.087,37.876 265.616,43.24 267.146,28.043 268.674,46.101 270.202,40.386 271.73,45.815    273.259,40.157 274.787,22.893 276.316,33.767 277.846,48.304 279.377,42.986 280.908,37.555 282.439,45.545 283.971,32.649    285.5,39.178 287.03,12.233 288.56,51.38 290.089,20.869 291.618,46.709 293.148,15.695 294.68,12.507 296.213,48.13    297.744,47.242 299.275,24.342 300.806,48.406 302.336,36.377 303.866,14.049 305.397,40.634 306.929,48.448 308.462,37.262    309.993,33.333 311.523,27.703 313.055,46.298 314.586,13.112 316.119,32.629 317.651,18.878 319.178,20.781 320.706,24.698    322.236,50.085 323.771,20.879 325.301,46.995 326.83,34.552 328.358,38.334 329.888,29.438 331.417,21.396 332.949,34.577    334.483,16.744 336.015,16.096 337.545,44.638 339.076,26.705 340.61,45.769 342.144,44.912 343.676,45.867 345.209,45.364    346.744,37.146 348.277,17.845 349.813,12.284 351.347,30.464 352.882,33.734 354.413,47.575 355.944,47.668 357.48,19.707    359.015,12.677 360.551,36.468 362.089,23.636 363.624,28.935 365.163,45.699 366.704,20.483 368.246,47.404 369.546,49.276    371.354,30.288 373.456,16.857 374.487,29.921 374.698,50.011 377.966,25.647 380.678,14.149 382.085,17.764 384.11,15.529    381.721,46.166 383.613,42.679 383.507,52.01 389.694,24.515 390.575,28.723 388.483,46.764 395.354,21.966 392.254,42.614    398.553,23.279 392.347,53.405 401.019,27.094 400.174,35.852 399.07,44.644 401.704,41.12 401.552,46.168 408.851,29.833    406.376,41.272 408.412,40.157 415.034,27.771 407.969,49.1 412.802,41.501 417.559,34.673 410.903,52.764 413.676,50.201    424.449,31.898 426.591,31.488 414.157,58.323 427.527,36.953 418.779,55.605 417.139,61.119 429.389,43.523 431.454,43.261    418.686,65.996 439.772,36.632 438.129,42.146 437.809,45.52 422.885,68.848 437.969,50.803 439.678,51.187 428.949,67.318    434.327,62.833 436.422,62.559 445.183,54.595 430.012,74.189 446.165,58.305 437.427,69.986 458.729,49.785 459.87,51.164    462.269,51.296 448.924,66.617 441.217,75.916 438.615,80.123 452.857,69.25 445.88,77.297 451.629,74.303 460.298,69.151    460.059,71.408 444.374,85.521 446.182,85.797 447.135,86.754 452.114,84.859 463.322,78.854 465.407,79.355 466.214,80.731    477.949,75.235 455.661,90.89 467.955,85.252 482.234,78.888 481.218,81.495 455.568,97.287 471.099,90.738 472.074,92.015    466.29,96.585 466.756,98.009 487.677,90.178 473.008,98.526 475.877,99.015 479.49,99.271 488.24,97.646 477.54,103.49    473.546,106.601 476.541,107.195 470.612,110.763 486.387,107.413 473.055,113.103 464.699,116.986 474.541,115.793    484.892,114.747 468.718,120.257 476.396,119.995 487.891,119.166 480.572,122.271 461.958,127.179 498.628,122.466    489.588,125.649 459.902,131.398 462.064,132.391 465.94,133.273 479.316,133.356 488.943,134.103 464.537,137.414 485.161,137.62    466.739,139.958 495.041,140.553 472.935,142.584 475.726,144.011 494.497,145.537 474.33,147.063 491.788,148.589    497.297,150.115 472.086,151.641 463.288,153.167 475.989,154.693 473.86,156.22 496.77,157.747 500.193,159.273 482.703,160.8    472.044,162.328 478.413,163.856 470.65,165.384 492.887,166.913 476.213,168.44 464.094,169.968 467.457,171.495 468.048,173.021    460.977,174.548 478.623,176.075 476.103,177.602 468.625,179.128 462.525,180.655 477.352,182.182 497.243,183.708    480.267,185.235 490.036,186.762 467.475,188.29 477.366,189.816 494.238,191.343 498.411,192.872 474.124,194.4 478.915,195.927    488.233,197.454 463.601,198.979 487.448,200.505 461.111,202.03 493.823,203.554 461.747,205.078 466.981,206.602 462.74,208.125    476.783,209.648 473.403,211.171 499.521,212.694 478.122,214.217 496.584,215.74 494.092,217.263 466.76,218.786 497.551,220.31    471.245,221.833 472.427,223.358 478.955,224.883 483.436,226.408 493.859,227.935 497.082,229.461 470.843,230.989    473.388,232.518 466.975,234.047 473.817,235.576 496.079,237.104 461.514,238.631 481.151,240.158 473.848,241.685    476.441,243.21 489.168,244.735 463.879,246.261 474.788,247.786 462.06,249.312 476.395,250.837 485.159,252.363 475.415,253.889    478.882,255.416 465.336,256.943 485.956,258.471 465.526,260 499.694,261.53 486.843,263.06 495.809,264.589 472.108,266.117    494.876,267.645 481.521,269.172 465.817,270.698 483.099,272.226 499.188,273.752 486.513,275.279 463.283,276.808    469.962,278.336 490.813,279.865 479.193,281.396 474.229,282.927 470.357,284.456 498.931,285.984 489.105,287.513    480.063,289.041 472.125,290.569 496.033,292.098 489.32,293.627 494.636,295.156 499.851,296.688 491.282,298.218    478.519,299.748 467.938,301.276 485.266,302.806 461.113,304.335 465.02,305.864 462.69,307.396 482.719,308.927 493.36,310.457    484.009,311.986 490.063,313.517 490.979,315.047 461.147,316.578 479.224,318.109 490.797,319.634 482.612,321.161    482.805,322.69 500.344,324.223 487.966,325.753 462.193,327.28 484.028,328.808 487.327,330.335 477.625,331.863 474.591,333.395    478.577,334.927 492.961,336.457 483.598,337.986 464.579,339.517 483.725,341.049 494.849,342.581 462.657,344.112    469.032,345.644 486.729,347.178 488.121,348.71 486.352,350.243 482.947,351.776 498.567,353.311 490.082,354.841 485.71,356.371    480.537,357.906 471.189,359.438 468.068,360.974 465.098,362.51 492.664,364.044 474.53,365.582 475.051,385.174  " style="fill:#595959;"/><path d="M156.2,244.536c-0.439,0,4.813,11.281,4.959,11.281   c11.463,20.785,33.557,33.712,70.828,37.277c-5.324,4.022-11.71,11.684-12.597,20.533c-6.688,4.314-20.136,5.74-30.593,2.449   c-14.656-4.625-20.264-33.587-42.202-29.455c-4.749,0.877-3.806,4.022,0.301,6.674c6.688,4.314,12.982,9.728,17.831,21.246   c3.732,8.831,11.573,24.628,36.366,24.628c9.826,0,16.724-1.188,16.724-1.188s0.183,22.563,0.183,31.321   c0,10.13-13.668,12.981-13.668,17.845c0,1.92,4.529,2.104,8.161,2.104c7.181,0,22.13-5.998,22.13-16.511   c0-8.338,0.138-36.44,0.138-41.341c0-10.732,5.764-14.151,5.764-14.151s0.713,57.339-1.372,65.036   c-2.452,9.032-6.889,7.753-6.889,11.775c0,6.015,18.004,1.462,23.969-11.685c4.612-10.258,2.589-66.498,2.589-66.498l4.922-0.109   c0,0,0.274,25.743,0.109,37.536c-0.174,12.178-1.006,27.591,6.239,34.867c4.767,4.772,20.2,13.165,20.2,5.504   c0-4.461-8.462-8.118-8.462-20.168v-55.455c6.76,0,5.745,18.23,5.745,18.23l0.485,33.88c0,0-1.482,12.359,13.384,17.516   c5.242,1.847,16.449,2.322,16.98-0.75c0.53-3.071-13.504-7.66-13.632-17.224c-0.092-5.832,0.256-9.233,0.256-34.575   c0-25.341-3.403-34.702-15.287-42.181c36.641-3.748,59.329-12.798,70.38-37.039c0.86,0.018,4.502-11.336,4.026-11.336   c2.479-9.142,3.832-19.984,4.079-32.801c-0.063-34.776-16.723-47.082-19.916-52.841c4.712-26.348-0.796-38.305-3.357-42.419   c-9.441-3.364-32.843,8.63-45.634,17.059c-20.84-6.07-64.909-5.503-81.431,1.573c-30.493-21.813-46.622-18.467-46.622-18.467   s-10.43,18.667-2.754,45.965c-10.036,12.781-17.51,21.813-17.51,45.765C151.031,221.919,152.623,233.986,156.2,244.536   L156.2,244.536z" id="path9-5_1_" style="fill:#FFFFFF;"/></g><g id="Layer_1"/></svg>