<?xml version="1.0" ?><svg id="Layer_1" style="enable-background:new 0 0 48 48;" version="1.1" viewBox="0 0 48 48" xml:space="preserve" xmlns="http://www.w3.org/2000/svg" xmlns:xlink="http://www.w3.org/1999/xlink"><g id="Icons"><g id="Icons_21_"><g><path d="M24.71833,18.03154c0-0.4417-0.0074-0.8835,0.0034-1.3249     c0.0049-0.2012-0.0595-0.2768-0.2682-0.2753c-1.0855,0.0078-2.1712,0.0073-3.2567,0.0002     c-0.199-0.0013-0.2733,0.0528-0.273,0.2652c0.0056,3.9995,0.0055,7.999,0.0002,11.9985     c-0.0003,0.2077,0.066,0.2701,0.2693,0.2688c1.1355-0.0074,2.2712-0.008,3.4067,0.0004     c0.2066,0.0016,0.2645-0.0622,0.2637-0.2679c-0.0073-1.8997-0.0098-3.7995-0.0004-5.6992     c0.0023-0.4692,0.0311-0.9406,0.0867-1.4064c0.0606-0.5084,0.2235-0.9892,0.5808-1.377     c0.4587-0.4979,1.0546-0.6101,1.6979-0.5981c0.8979,0.0168,1.4574,0.4351,1.7139,1.2947     c0.1654,0.5539,0.1786,1.1234,0.1789,1.6941c0.0011,2.0212,0.0002,4.0424,0.0008,6.0636c0,0.2824,0.0091,0.2917,0.2868,0.2919     c1.107,0.0008,2.214,0.0005,3.321,0.0003c0.3451-0.0001,0.3469-0.0006,0.3455-0.3407c-0.0101-2.4489-0.0166-4.8978-0.0341-7.3466     c-0.0054-0.7502-0.1061-1.492-0.3115-2.2151c-0.3146-1.1072-0.9071-2.0102-1.9954-2.4818     c-1.1386-0.4935-2.331-0.5827-3.5365-0.287C26.15763,16.54445,25.33523,17.12844,24.71833,18.03154z M18.56433,16.71074     c0.0009-0.217-0.057-0.2819-0.2739-0.2801c-1.1283,0.0092-2.2566,0.0086-3.3848,0.0003     c-0.2115-0.0015-0.2827,0.0577-0.2824,0.2781v11.9594l0.0001,0.0162c-0.0003,0.2184,0.0669,0.2815,0.2806,0.2798     c1.1282-0.0085,2.2566-0.0087,3.3848,0.0002c0.2139,0.0016,0.2767-0.0584,0.2757-0.2784L18.56433,16.71074z M14.32483,12.54095     c0.0002,1.2467,1.0213,2.2907,2.2699,2.2782c1.2884-0.0129,2.2882-0.9833,2.2858-2.2808     c-0.0023-1.3201-1.0201-2.2816-2.2882-2.2743C15.24013,10.27194,14.32723,11.35424,14.32483,12.54095z" style="fill:#0097D3;"/><g><path d="M32.85663,35.12334c0-0.103-0.0018-0.206,0.0008-0.3089      c0.0011-0.047-0.0139-0.0646-0.0626-0.0642c-0.2531,0.0018-0.5063,0.0017-0.7595,0c-0.0464-0.0003-0.0637,0.0123-0.0637,0.0619      c0.0013,0.9327,0.0013,1.8655,0.0001,2.7982c-0.0001,0.0485,0.0154,0.063,0.0628,0.0627      c0.2648-0.0017,0.5297-0.0019,0.7945,0.0001c0.0482,0.0004,0.0617-0.0145,0.0615-0.0625      c-0.0017-0.443-0.0023-0.8861-0.0001-1.3291c0.0005-0.1094,0.0072-0.2194,0.0202-0.328      c0.0141-0.1186,0.0521-0.2307,0.1354-0.3212c0.107-0.1161,0.246-0.1423,0.396-0.1394c0.2094,0.0039,0.3399,0.1014,0.3998,0.3019      c0.0385,0.1292,0.0416,0.262,0.0417,0.3951c0.0002,0.4714,0,0.9428,0.0001,1.4141c0.0001,0.0659,0.0022,0.0681,0.0669,0.0681      c0.2582,0.0002,0.5164,0.0001,0.7746,0.0001c0.0804,0,0.0809-0.0002,0.0805-0.0795c-0.0023-0.5711-0.0038-1.1422-0.0079-1.7133      c-0.0013-0.175-0.0248-0.348-0.0727-0.5167c-0.0733-0.2582-0.2115-0.4688-0.4653-0.5788      c-0.2656-0.115-0.5437-0.1358-0.8248-0.0669C33.19223,34.77655,33.00043,34.91275,32.85663,35.12334z M31.42023,36.21434      c0-0.4663-0.0009-0.9327,0.0011-1.399c0.0003-0.0506-0.0133-0.0657-0.0638-0.0653c-0.2632,0.0022-0.5263,0.002-0.7894,0.0001      c-0.0494-0.0004-0.066,0.0134-0.0659,0.0648c0.0014,0.931,0.0014,1.862,0,2.7929c-0.0001,0.051,0.0156,0.0657,0.0655,0.0653      c0.2631-0.002,0.5262-0.002,0.7894,0c0.0499,0.0004,0.0645-0.0136,0.0643-0.0649      C31.41933,37.14365,31.42023,36.67894,31.42023,36.21434z M30.43263,33.84285c0.0001,0.2908,0.2382,0.5343,0.5294,0.5314      c0.3005-0.003,0.5336-0.2294,0.5331-0.532c-0.0006-0.3078-0.2379-0.5321-0.5337-0.5304      C30.64613,33.31374,30.43323,33.56614,30.43263,33.84285z" style="fill:#303030;"/></g><g><path d="M28.49143,35.02044c0-0.4602,0-0.9204,0-1.3852c0.3093,0,0.6141,0,0.9344,0      c0,1.3424,0,2.6848,0,4.0321c-0.2575,0-0.5287,0-0.8053,0c-0.0126-0.1367-0.0252-0.274-0.0389-0.4232      c-0.0169,0.0178-0.0271,0.0257-0.0337,0.0359c-0.1816,0.2784-0.4484,0.417-0.7697,0.4487      c-0.5495,0.0542-1.0107-0.197-1.2436-0.7002c-0.2611-0.5644-0.2531-1.1389,0.0532-1.6838      c0.3522-0.6266,1.0579-0.7559,1.5708-0.5584C28.28723,34.83585,28.39553,34.91364,28.49143,35.02044z M28.49446,36.19616      c0.00009-0.11129,0.00302-0.22424-0.01283-0.33432c-0.0326-0.2263-0.203-0.4033-0.411-0.4488      c-0.2449-0.0536-0.4803,0.0349-0.6157,0.2316c-0.0913,0.1326-0.1346,0.2822-0.1489,0.4401      c-0.0207,0.2303-0.0004,0.4541,0.1224,0.6582c0.1231,0.2046,0.3509,0.3065,0.6002,0.2687      c0.2162-0.0327,0.3962-0.1938,0.4399-0.4179c0.02356-0.12082,0.02666-0.24449,0.026-0.36723      C28.49447,36.21641,28.49446,36.20629,28.49446,36.19616z" style="fill:#303030;"/><path d="M20.68413,37.66805c0-1.3446,0-2.687,0-4.0334c0.3054,0,0.6086,0,0.9191,0      c0,0.762,0,1.525,0,2.3043c0.0185-0.0238,0.0268-0.0336,0.0342-0.044c0.2568-0.3634,0.5132-0.727,0.7713-1.0895      c0.0126-0.0178,0.0394-0.0362,0.0596-0.0363c0.3511-0.0021,0.7022-0.0014,1.0532-0.001c0.0034,0,0.0068,0.0028,0.0194,0.0084      c-0.3526,0.3893-0.703,0.7762-1.0577,1.1678c0.4036,0.5729,0.8067,1.1452,1.2171,1.7278c-0.0315,0-0.0504,0-0.0692,0      c-0.3373,0-0.6746-0.0008-1.012,0.001c-0.0426,0.0003-0.0658-0.0126-0.0879-0.0494c-0.218-0.3627-0.4381-0.7242-0.6578-1.086      c-0.0109-0.0181-0.0226-0.0357-0.0367-0.0579c-0.0747,0.094-0.1463,0.1819-0.2146,0.2723      c-0.0125,0.0166-0.016,0.0433-0.0161,0.0654c-0.0011,0.2608-0.0007,0.5217-0.0007,0.7825c0,0.0213,0,0.0426,0,0.068      C21.29673,37.66805,20.99223,37.66805,20.68413,37.66805z" style="fill:#303030;"/><path d="M24.26013,36.50814c0.0177,0.2017,0.124,0.3359,0.289,0.4287      c0.1411,0.0794,0.2959,0.1144,0.4559,0.1211c0.2998,0.0125,0.595-0.0176,0.8819-0.1107      c0.0091-0.0029,0.0188-0.0041,0.034-0.0074c0.0405,0.2025,0.0807,0.4033,0.1214,0.6067      c-0.1709,0.075-0.3472,0.1239-0.5275,0.1426c-0.2294,0.0238-0.4612,0.0411-0.6915,0.0366      c-0.3099-0.0062-0.6049-0.0848-0.8663-0.2606c-0.3024-0.2034-0.4785-0.4918-0.5452-0.846      c-0.0906-0.4808-0.0207-0.9343,0.2664-1.3392c0.2555-0.3603,0.6155-0.5399,1.0513-0.5759      c0.2393-0.0198,0.4742,0.0002,0.6988,0.091c0.362,0.1465,0.5796,0.4227,0.6951,0.7869c0.0905,0.2854,0.1013,0.577,0.0624,0.8724      c-0.0061,0.0463-0.0223,0.0574-0.0658,0.057c-0.347-0.0025-0.6941-0.0031-1.0411-0.004      c-0.2569-0.0007-0.5138-0.001-0.7707-0.0014C24.29483,36.50594,24.28133,36.50714,24.26013,36.50814z M25.34583,35.88054      c0-0.0242,0.0014-0.0419-0.0003-0.0593c-0.0026-0.0273-0.0057-0.0547-0.0114-0.0814c-0.0431-0.2018-0.1366-0.364-0.3503-0.4225      c-0.3619-0.0992-0.7109,0.1711-0.7269,0.5632C24.61843,35.88054,24.97983,35.88054,25.34583,35.88054z" style="fill:#303030;"/><path d="M19.37523,37.66814c0-0.0258,0-0.0488,0-0.0718c0-0.459,0.0022-0.918-0.0016-1.3769      c-0.0009-0.1089-0.0101-0.2207-0.0363-0.326c-0.1066-0.4293-0.5858-0.403-0.7777-0.1995      c-0.1011,0.1073-0.1586,0.2304-0.1583,0.3802c0.0008,0.5061-0.0001,1.0121-0.0003,1.5182c0,0.0233,0,0.0466,0,0.0748      c-0.3083,0-0.6131,0-0.9225,0c0-0.9223,0-1.8466,0-2.7744c0.3064,0,0.6111,0,0.9213,0c0,0.124,0,0.2447,0,0.3653      c0.0038,0.0016,0.0075,0.0032,0.0112,0.0048c0.0154-0.0209,0.0306-0.0418,0.0461-0.0627      c0.224-0.3024,0.5328-0.4034,0.8946-0.3715c0.5283,0.0464,0.838,0.4005,0.9207,0.914c0.0174,0.1079,0.025,0.2184,0.0256,0.3278      c0.0026,0.5158,0.0012,1.0317,0.0012,1.5475c0,0.0154-0.0013,0.0309-0.0022,0.0501      C19.99043,37.66814,19.68593,37.66814,19.37523,37.66814z" style="fill:#303030;"/><path d="M14.11693,36.83604c0.5493,0,1.0881,0,1.6298,0c0,0.2799,0,0.5553,0,0.8336      c-0.852,0-1.7004,0-2.5524,0c0-1.3455,0-2.688,0-4.0347c0.3068,0,0.6115,0,0.9226,0      C14.11693,34.69984,14.11693,35.76374,14.11693,36.83604z" style="fill:#303030;"/><path d="M16.12283,34.89264c0.3093,0,0.6125,0,0.9191,0c0,0.926,0,1.8484,0,2.7752      c-0.3062,0-0.6107,0-0.9191,0C16.12283,36.74395,16.12283,35.81995,16.12283,34.89264z" style="fill:#303030;"/><path d="M16.58193,33.54615c0.2804,0.0048,0.4745,0.1565,0.514,0.3911      c0.0497,0.2946-0.1432,0.5414-0.4439,0.5668c-0.1731,0.0147-0.3344-0.0161-0.458-0.1484      c-0.1355-0.1451-0.1645-0.3179-0.0975-0.5019c0.0678-0.1865,0.2157-0.2753,0.4058-0.3022      C16.53323,33.54715,16.56483,33.54725,16.58193,33.54615z" style="fill:#303030;"/></g></g></g></g></svg>