<?xml version="1.0" ?><!DOCTYPE svg  PUBLIC '-//W3C//DTD SVG 1.1//EN'  'http://www.w3.org/Graphics/SVG/1.1/DTD/svg11.dtd'><svg height="512px" style="enable-background:new 0 0 512 512;" version="1.1" viewBox="0 0 512 512" width="512px" xml:space="preserve" xmlns="http://www.w3.org/2000/svg" xmlns:xlink="http://www.w3.org/1999/xlink"><g id="_x33_07-slack-hash"><g><g id="XMLID_11_"><g><g><path d="M143.515,337.465l30.69,87.979l-33.77,11.78c-24.29,8.47-50.85-4.35-59.33-28.65       c-1.77-5.079-2.61-10.25-2.61-15.34c0-19.27,12.04-37.29,31.25-43.989L143.515,337.465z" style="fill:#CE1E5C;"/></g><g><polygon points="306.775,280.515 337.465,368.495 262.185,394.755 231.485,306.774      " style="fill:#CE1E5C;"/></g><g><path d="M489.565,266.095c8.47,24.29-4.351,50.85-28.65,59.33l-35.47,12.37l-30.69-87.98l35.47-12.37       C454.525,228.975,481.085,241.795,489.565,266.095z" style="fill:#CE1E5C;"/></g><g><polygon points="394.755,249.815 425.445,337.795 337.465,368.495 306.775,280.515      " style="fill:#BB242B;"/></g><g><path d="M437.225,371.564c8.471,24.29-4.359,50.86-28.649,59.33c-5.08,1.771-10.26,2.61-15.351,2.61       c-19.26,0-37.279-12.04-43.979-31.25l-11.78-33.76l87.98-30.7L437.225,371.564z" style="fill:#DFA22F;"/></g><g><polygon points="368.495,174.535 394.755,249.815 306.775,280.515 280.515,205.225      " style="fill:#DFA22F;"/></g><g><rect height="93.169" style="fill:#62803A;" transform="matrix(0.9442 -0.3294 0.3294 0.9442 -30.8024 109.9664)" width="93.18" x="262.57" y="99.311"/></g><g><path d="M325.425,51.085l12.38,35.48l-87.98,30.69l-12.38-35.48c-8.47-24.3,4.35-50.86,28.65-59.34       C290.385,13.965,316.945,26.785,325.425,51.085z" style="fill:#DFA22F;"/></g><g><path d="M430.895,103.425c8.471,24.29-4.35,50.86-28.64,59.33l-33.76,11.78l-30.69-87.97l33.761-11.78       C395.855,66.305,422.425,79.135,430.895,103.425z" style="fill:#72C5CD;"/></g><g><polygon points="280.515,205.225 205.225,231.485 174.535,143.515 249.825,117.255      " style="fill:#72C5CD;"/></g><g><path d="M117.255,262.175l-35.48,12.38c-24.3,8.47-50.86-4.35-59.34-28.64       c-1.77-5.08-2.61-10.26-2.61-15.35c0-19.26,12.04-37.28,31.26-43.99l35.48-12.38L117.255,262.175z" style="fill:#72C5CD;"/></g><g><polygon points="262.185,394.755 174.205,425.444 143.515,337.465 231.485,306.774      " style="fill:#382538;"/></g><g><polygon points="174.535,143.515 205.225,231.485 117.255,262.175 86.565,174.195      " style="fill:#248C73;"/></g><g><path d="M274.555,430.225c8.471,24.3-4.35,50.86-28.64,59.34c-5.08,1.771-10.26,2.61-15.35,2.61       c-19.26,0-37.28-12.04-43.99-31.26l-12.37-35.471l87.98-30.689L274.555,430.225z" style="fill:#3CB187;"/></g><g><polygon points="205.225,231.485 231.485,306.774 143.515,337.465 117.255,262.175      " style="fill:#3CB187;"/></g><g><path d="M162.755,109.745l11.78,33.77l-87.97,30.68l-11.78-33.76c-8.48-24.29,4.35-50.85,28.64-59.33       C127.715,72.635,154.285,85.455,162.755,109.745z" style="fill:#3CB187;"/></g></g></g></g></g><g id="Layer_1"/></svg>