<?xml version="1.0" ?><svg id="Layer_1" style="enable-background:new 0 0 512 512;" version="1.1" viewBox="0 0 512 512" xml:space="preserve" xmlns="http://www.w3.org/2000/svg" xmlns:xlink="http://www.w3.org/1999/xlink"><style type="text/css">
	.st0{fill:url(#SVGID_1_);}
	.st1{fill:#25D366;}
	.st2{fill:url(#SVGID_2_);}
</style><g><g><g><linearGradient gradientUnits="userSpaceOnUse" id="SVGID_1_" x1="200.7087" x2="296.6872" y1="166.4626" y2="332.7022"><stop offset="0" style="stop-color:#25D366"/><stop offset="1" style="stop-color:#008DA5"/></linearGradient><path class="st0" d="M258.8,339.5c-19,0-37.4-5.5-53.1-15.9l-2-1.3l-31.9,10.2l10.3-30.5l-1.5-2.1c-12-16.5-18.4-35.9-18.4-56.2     c0-3.1,0.2-6.2,0.5-9.3c2.3-23.6,13.3-45.4,31-61.5c17.8-16.2,41-25.1,65.1-25.1c24.4,0,47.8,9.1,65.7,25.7     c17.8,16.5,28.7,38.7,30.6,62.7c0.2,2.5,0.3,4.9,0.3,7.5C355.4,296.6,312.1,339.5,258.8,339.5z M218.2,184c-2,0-7.2,0.5-11.6,5.3     l-0.5,0.5c-3.3,3.5-11.2,11.8-11.2,27.4c0,3.5,0.6,7.2,1.7,11.4c3.1,10.7,9.5,19.6,11.4,22.1c0.1,0.1,0.2,0.4,0.5,0.7     c14.9,21.8,33.4,37.9,52.2,45.3c19.7,7.6,26.6,8.7,30.8,8.7c2.4,0,4-0.4,5.3-0.7c0.7-0.2,1.2-0.3,1.8-0.3     c7.3-0.6,21.1-8.3,24.2-17.3c2.3-6.3,3.5-14.6,1.3-18.2c-1.4-2.2-3.6-3.3-6.1-4.5c-0.5-0.2-1.1-0.5-1.6-0.8     c-17.8-8.8-20.1-9.5-20.8-9.8c-1.3-0.5-3-1.1-4.8-1.1c-2.1,0-5.2,0.8-7.7,4.5c-1.6,2.3-6.5,8.1-8.9,10.8     c-0.2-0.1-0.4-0.2-0.6-0.3c-0.6-0.3-1.3-0.6-2.3-1c-4.1-1.7-11.6-5-20.4-12.8c-8.3-7.4-14-16.6-15.3-18.7     c0.1-0.1,0.2-0.2,0.3-0.3c1-1,1.9-2.1,2.9-3.2c0.6-0.7,1.2-1.4,1.8-2.1l0.1-0.1l1.3-1.8l0.1-0.2c0.8-1.3,1.4-2.5,2.1-4     c1.5-3,1.4-6.3-0.2-9.6c-0.4-0.8-3.1-7.3-5.1-12.1c-1.5-3.6-3-7.2-4-9.5c-0.8-1.9-3.3-8-9.8-8c-0.4,0-0.8,0-1.1,0     c-0.1,0-0.2,0-0.3,0c-0.6,0-1.4-0.1-2.2-0.1C220.5,184.1,219.4,184,218.2,184z"/><path class="st1" d="M258.8,152.9c23.2,0,45.3,8.6,62.3,24.3c16.9,15.6,27.2,36.7,29,59.4l0,0l0,0c0.2,2.3,0.3,4.6,0.3,7     c0,50.1-41.1,90.8-91.6,90.8c-18,0-35.5-5.2-50.4-15l-4-2.6l-4.6,1.5l-20.2,6.4l6.3-18.7l1.7-4.9l-3.1-4.2     c-11.4-15.6-17.4-34-17.4-53.2c0-2.9,0.2-5.9,0.5-8.7l0,0l0,0c2.2-22.3,12.6-43,29.4-58.2C214,161.4,235.9,152.9,258.8,152.9      M204,253.6c0.1,0.1,0.2,0.3,0.4,0.6c15.4,22.6,34.8,39.4,54.6,47.2c20.4,7.9,27.7,9,32.6,9c3,0,5.1-0.5,6.5-0.8     c0.5-0.1,0.8-0.2,1-0.2c8.7-0.8,24.5-9.3,28.5-20.5c0.6-1.7,5.3-15.2,0.9-22.5l0-0.1l0-0.1c-2.1-3.5-5.3-5-8.1-6.3     c-0.5-0.2-1-0.5-1.6-0.8l0,0l0,0l-0.1-0.1c-17.4-8.5-20.1-9.5-21.1-9.9c-1.9-0.7-4.1-1.4-6.6-1.4c-2.7,0-7.9,0.9-11.8,6.7     c-1,1.5-3.7,4.8-6.1,7.5c-3.9-1.7-10.8-4.8-18.7-11.8c-5.6-4.9-9.9-10.8-12.3-14.4c0.3-0.3,0.5-0.6,0.8-0.9     c0.6-0.7,1.2-1.4,1.7-1.9l0.3-0.3l0.2-0.3c0.4-0.5,0.7-1,1.1-1.5l0.3-0.3l0.2-0.4c1-1.5,1.6-2.9,2.4-4.4c1.6-3.1,2.7-8-0.2-14     c-0.5-1.1-3.1-7.3-5-11.8c-1.5-3.7-3-7.2-3.9-9.5c-3.8-9.1-9.9-11.1-14.4-11.1c-0.6,0-1.1,0-1.5,0.1l-0.1,0     c-0.4,0-1.1-0.1-1.8-0.1c-1.1-0.1-2.4-0.2-3.8-0.2c-5.7,0-11.2,2.5-15.3,6.9c-0.1,0.2-0.3,0.3-0.5,0.5     c-3.4,3.6-12.5,13.3-12.5,30.8c0,4,0.6,8.1,1.9,12.7l0,0.1l0,0C195,241.1,201.4,250.1,204,253.6 M258.8,142.9     c-52.7,0-96.1,40-101.1,91c-0.3,3.2-0.5,6.5-0.5,9.8c0,22.1,7.2,42.5,19.3,59.1l-12.7,37.4l39-12.4     c16.1,10.6,35.2,16.7,55.9,16.7c56,0,101.6-45.2,101.6-100.8c0-2.7-0.1-5.3-0.3-7.9C356,183.9,312.2,142.9,258.8,142.9     L258.8,142.9z M291.5,300.3c-4.1,0-11.5-1.5-29-8.3c-30.1-11.8-49.1-42.5-50.6-44.4c-1.1-1.5-7.6-10-10.6-20.4     c-0.9-3.2-1.5-6.6-1.5-10c0-14.5,7.6-21.6,10.4-24.6c2.7-2.9,5.9-3.7,7.9-3.7c2,0,4,0.3,5.7,0.3c0.4,0,0.9-0.1,1.5-0.1     c1.5,0,3.4,0.6,5.2,4.9c2.5,5.9,8.4,20.4,9.2,21.8c0.7,1.5,1.3,3.2,0.2,5.1c-0.7,1.4-1.2,2.4-1.9,3.5c-0.3,0.4-0.7,0.9-1.1,1.4     c-1.5,1.7-3.1,3.8-4.5,5.1c-1.5,1.5-3,3-1.3,6c1.7,3,7.7,12.6,16.5,20.3c11.3,10.1,20.9,13.1,23.8,14.6c1.3,0.6,2.3,0.9,3.3,0.9     c1.2,0,2.2-0.6,3.2-1.7c1.7-1.9,7.4-8.5,9.4-11.5c1.1-1.7,2.2-2.2,3.5-2.2c1,0,2,0.3,3.2,0.8c2.7,1,17.3,8.1,20.3,9.6     c2.9,1.5,4.9,2.2,5.6,3.4c0.7,1.2,0.7,7.1-1.8,14c-2.4,6.9-14.5,13.5-20,14C295.8,299.5,294.5,300.3,291.5,300.3L291.5,300.3z"/></g><g><linearGradient gradientUnits="userSpaceOnUse" id="SVGID_2_" x1="152.1333" x2="359.8679" y1="76.0987" y2="435.9055"><stop offset="0" style="stop-color:#25D366"/><stop offset="1" style="stop-color:#008DA5"/></linearGradient><path class="st2" d="M256,463.8c-114.6,0-207.8-93.2-207.8-207.8c0-114.6,93.2-207.8,207.8-207.8c114.6,0,207.8,93.2,207.8,207.8     C463.8,370.6,370.6,463.8,256,463.8z M125.6,377.7l74.3-23.6c18.1,9.5,38.4,14.5,58.9,14.5c69.4,0,125.8-56,125.8-124.9     c0-1,0-2.1-0.1-3.2c-1.8-68.2-57-121.7-125.8-121.7c-67.5,0-122.7,52.5-125.7,119.4l0,0.8c0,1.5-0.1,3.1-0.1,4.7     c0,22,5.8,43.5,16.8,62.5L125.6,377.7z"/><path class="st1" d="M256,53.2c27.4,0,53.9,5.4,78.9,15.9c24.1,10.2,45.8,24.8,64.5,43.5c18.6,18.6,33.2,40.3,43.5,64.5     c10.6,25,15.9,51.5,15.9,78.9c0,27.4-5.4,53.9-15.9,78.9c-10.2,24.1-24.8,45.8-43.5,64.5c-18.6,18.6-40.3,33.2-64.5,43.5     c-25,10.6-51.5,15.9-78.9,15.9c-27.4,0-53.9-5.4-78.9-15.9c-24.1-10.2-45.8-24.8-64.5-43.5c-18.6-18.6-33.2-40.3-43.5-64.5     c-10.6-25-15.9-51.5-15.9-78.9c0-27.4,5.4-53.9,15.9-78.9c10.2-24.1,24.8-45.8,43.5-64.5c18.6-18.6,40.3-33.2,64.5-43.5     C202.1,58.6,228.6,53.2,256,53.2 M144.4,306.8l-20.3,60l-6.3,18.7l18.8-6l62.9-20c18.3,9.3,38.7,14.1,59.3,14.1     c72.1,0,130.8-58.3,130.8-129.9c0-1,0-2.2-0.1-3.4c-1.9-70.9-59.3-126.5-130.8-126.5c-70.2,0-127.6,54.6-130.7,124.2l0,0.1l0,0.1     l0,0.7c0,1.5-0.1,3.1-0.1,4.8C128,265.8,133.6,287.5,144.4,306.8 M256,43.2C138.5,43.2,43.2,138.5,43.2,256     c0,117.5,95.3,212.8,212.8,212.8S468.8,373.5,468.8,256C468.8,138.5,373.5,43.2,256,43.2L256,43.2z M133.5,370l21.8-64.3     c-11-18.1-17.3-39.3-17.3-61.9c0-1.8,0.1-3.5,0.1-5.3c2.8-63.8,55.8-114.7,120.7-114.7c65.7,0,119.1,52,120.8,116.9     c0.1,1,0.1,2,0.1,3.1c0,66.2-54.1,119.9-120.8,119.9c-21.2,0-41.1-5.4-58.4-14.9L133.5,370L133.5,370z"/></g></g></g></svg>