<?xml version="1.0" ?><!DOCTYPE svg  PUBLIC '-//W3C//DTD SVG 1.1//EN'  'http://www.w3.org/Graphics/SVG/1.1/DTD/svg11.dtd'><svg enable-background="new 0 0 134 133.111" height="133.111px" id="Layer_1" version="1.1" viewBox="0 0 134 133.111" width="134px" xml:space="preserve" xmlns="http://www.w3.org/2000/svg" xmlns:xlink="http://www.w3.org/1999/xlink"><g><g><g><g><circle cx="67" cy="66.556" fill="#702B90" r="63.333"/></g></g></g><g><g><path d="M112.034,22.021c24.732,24.732,24.733,64.832-0.001,89.566c-24.733,24.732-64.834,24.732-89.566,0     L112.034,22.021z" fill="#602C7F"/></g><g><path d="M128.944,79.761L101.715,51.03l-4.118,3.903l-3.383-3.569l-8.642,8.19l-7.529-7.944l-3.655,3.465     L64.12,44.808l-4.708,4.708l-4.5-4.5L50.6,49.329l4.5,4.5l-3.438,3.437L40.079,45.683L37.662,48.1l-2.917-2.917l-4.313,4.312     l34.05,34.049l-6.104,6.104l-2.299-2.299l-1.917,1.916l-1.916-1.916l-2.979,2.979l36.677,36.677     C107.561,120.238,124.186,102.191,128.944,79.761z" fill="#4F286D"/></g></g><path d="M91.423,56.118c-1.856,0.5-18.834,13.667-19.953,16.897   c-0.247,1.115,0.024,11.937,0.271,13.559c1.118,0.249,9.196,0.031,10.677,0.28l-0.177,3.345c-1.452-0.112-11.715-0.086-17.57-0.086   c-2.976,0-12.543,0.329-15.48,0.243l0.556-3.185c1.613-0.118,8.284,0.297,9.746-1.26c0.727-0.775,0.5-11.059,0.253-12.798   c-0.618-1.86-15.496-20.503-19.386-23.557H30.337V44.87h33.796v0.323c0.03,0,0.086,0.005,0.115,0.011l-0.115,0.792v3.56h-10.19   c4.543,6.642,11.055,14.662,13.833,18.515l13.611-12.336h-8.09l-1.141-4.681h29.64l-0.219,0.334c0.023,0,0.072,0.005,0.104,0.005   l-2.116,3.071c-0.02,0-0.051,0.005-0.067,0.01l-0.854,1.261h-5.467C92.466,55.892,91.844,56.031,91.423,56.118z M101.094,85.47   l-2.617-0.131l-2.919-0.355l0.024,5.006l2.302,0.199l2.482,0.182L101.094,85.47z M106.173,61.547   c-0.883-0.031-8.912-0.792-9.954-0.998l0.122,21.143l4.543,0.367L106.173,61.547z" fill="#FFFFFF" id="Yahoo_x21__2_"/></g></svg>